<svg id="eWzETrbKC3R1"
  xmlns="http://www.w3.org/2000/svg"
  xmlnsXlink="http://www.w3.org/1999/xlink" viewBox="0 0 48 20" shapeRendering="geometricPrecision" textRendering="geometricPrecision">
  <rect width="2" height="20" rx="1" ry="1" transform="matrix(1 0 0 1 0.425721 0)" stroke-width="0"/>
  <rect width="2" height="20" rx="1" ry="1" transform="matrix(1 0 0 0.5 5.425721 19)" stroke-width="0"/>
  <rect width="2" height="20" rx="1" ry="1" transform="matrix(1 0 0 0.15 10.425721 8.5)" stroke-width="0"/>
  <rect width="2" height="20" rx="1" ry="1" transform="matrix(1 0 0 0.15 15.425721 8.5)" stroke-width="0"/>
  <rect width="2" height="20" rx="1" ry="1" transform="matrix(1 0 0 0.15 20.425721 8.5)" stroke-width="0"/>
  <rect width="2" height="20" rx="1" ry="1" transform="matrix(1 0 0 0.15 25.425721 8.5)" stroke-width="0"/>
  <rect width="2" height="20" rx="1" ry="1" transform="matrix(1 0 0 0.15 30.425721 8.5)" stroke-width="0"/>
  <rect width="2" height="20" rx="1" ry="1" transform="matrix(1 0 0 0.15 35.425721 8.5)" stroke-width="0"/>
  <rect width="2" height="20" rx="1" ry="1" transform="matrix(1 0 0 0.15 40.425721 8.5)" stroke-width="0"/>
  <rect width="2" height="20" rx="1" ry="1" transform="matrix(1 0 0 0.15 45.425721 8.5)" stroke-width="0"/>
</svg>
