<?xml version="1.0" standalone="no"?>
<!DOCTYPE svg PUBLIC "-//W3C//DTD SVG 20010904//EN"
 "http://www.w3.org/TR/2001/REC-SVG-20010904/DTD/svg10.dtd">
<svg version="1.0" xmlns="http://www.w3.org/2000/svg"
 width="500.000000pt" height="500.000000pt" viewBox="0 0 500.000000 500.000000"
 preserveAspectRatio="xMidYMid meet">
<metadata>
Created by potrace 1.14, written by Peter Selinger 2001-2017
</metadata>
<g transform="translate(0.000000,500.000000) scale(0.100000,-0.100000)"
fill="#000000" stroke="none">
<path d="M383 4986 c-181 -44 -334 -202 -372 -384 -16 -75 -16 -4129 0 -4204
39 -187 200 -348 387 -387 75 -16 4129 -16 4204 0 187 39 348 200 387 387 16
75 16 4129 0 4204 -39 187 -200 348 -387 387 -81 17 -4148 14 -4219 -3z m2437
-770 c390 -69 693 -273 839 -563 42 -85 79 -218 87 -313 l7 -80 -295 0 -294 0
-12 58 c-38 182 -191 325 -407 379 -107 26 -354 23 -458 -5 -164 -45 -274
-127 -334 -249 -34 -69 -38 -84 -38 -157 0 -110 23 -172 90 -244 107 -115 216
-160 655 -272 322 -82 448 -124 595 -198 395 -197 585 -528 536 -930 -39 -315
-213 -564 -498 -714 -145 -76 -285 -121 -473 -150 -113 -17 -497 -17 -610 0
-296 46 -529 149 -698 307 -183 171 -277 372 -307 663 l-7 62 301 0 c233 0
302 -3 305 -12 2 -7 8 -40 15 -72 35 -190 182 -337 404 -405 108 -33 276 -46
403 -32 195 22 335 83 437 190 79 83 110 152 115 262 6 119 -12 172 -89 254
-105 111 -244 169 -676 280 -404 104 -540 153 -705 253 -218 132 -338 284
-394 497 -28 104 -25 341 5 450 112 412 494 694 1027 755 107 12 370 4 474
-14z"/>
</g>
</svg>
