<svg xmlns="http://www.w3.org/2000/svg" width="500" height="500" viewBox="0 0 500 500" fill="none"><metadata><rdf:RDF xmlns:rdf="http://www.w3.org/1999/02/22-rdf-syntax-ns#" xmlns:dc="http://purl.org/dc/elements/1.1/"><rdf:Description><dc:creator>RealFaviconGenerator</dc:creator><dc:source>https://realfavicongenerator.net</dc:source></rdf:Description></rdf:RDF></metadata><rect width="500" height="500" rx="50" fill="#1E1E1E"></rect><path d="M316.154 173.785C314.613 159.364 308.118 148.135 296.669 140.099C285.33 132.063 270.579 128.045 252.415 128.045C239.645 128.045 228.692 129.971 219.555 133.824C210.417 137.677 203.427 142.906 198.583 149.511C193.74 156.116 191.263 163.657 191.153 172.134C191.153 179.179 192.749 185.289 195.941 190.463C199.244 195.637 203.702 200.04 209.317 203.673C214.931 207.196 221.151 210.168 227.976 212.59C234.801 215.012 241.682 217.049 248.617 218.7L280.322 226.626C293.091 229.598 305.366 233.616 317.145 238.68C329.034 243.744 339.658 250.129 349.015 257.835C358.482 265.541 365.968 274.843 371.472 285.742C376.976 296.64 379.729 309.41 379.729 324.051C379.729 343.867 374.665 361.315 364.537 376.397C354.409 391.369 339.768 403.093 320.613 411.569C301.568 419.936 278.505 424.119 251.424 424.119C225.114 424.119 202.271 420.046 182.896 411.9C163.631 403.753 148.55 391.864 137.651 376.232C126.863 360.6 121.028 341.555 120.148 319.098H180.419C181.3 330.877 184.933 340.674 191.318 348.49C197.703 356.306 206.014 362.141 216.252 365.994C226.6 369.847 238.159 371.773 250.929 371.773C264.249 371.773 275.918 369.792 285.936 365.829C296.064 361.756 303.99 356.141 309.714 348.986C315.439 341.72 318.356 333.244 318.466 323.556C318.356 314.749 315.769 307.484 310.705 301.759C305.641 295.925 298.541 291.081 289.404 287.228C280.377 283.265 269.808 279.742 257.699 276.66L219.224 266.752C191.373 259.597 169.356 248.753 153.173 234.222C137.101 219.581 129.065 200.151 129.065 175.932C129.065 156.006 134.459 138.558 145.247 123.586C156.145 108.615 170.952 97.0007 189.666 88.7443C208.381 80.3778 229.572 76.1946 253.241 76.1946C277.239 76.1946 298.266 80.3778 316.319 88.7443C334.484 97.0007 348.74 108.505 359.088 123.256C369.436 137.897 374.775 154.74 375.105 173.785H316.154Z" fill="white"></path></svg>